<?xml version="1.0" encoding="UTF-8" standalone="no"?>
<!-- Created with Inkscape (http://www.inkscape.org/) -->

<svg
   xmlns:dc="http://purl.org/dc/elements/1.1/"
   xmlns:cc="http://creativecommons.org/ns#"
   xmlns:rdf="http://www.w3.org/1999/02/22-rdf-syntax-ns#"
   xmlns:svg="http://www.w3.org/2000/svg"
   xmlns="http://www.w3.org/2000/svg"
   xmlns:sodipodi="http://sodipodi.sourceforge.net/DTD/sodipodi-0.dtd"
   xmlns:inkscape="http://www.inkscape.org/namespaces/inkscape"
   width="483"
   height="547.28571"
   id="svg2"
   inkscape:label="Pozadí"
   version="1.1"
   inkscape:version="0.48.0 r9654"
   sodipodi:docname="Jazyky.pdf">
  <defs
     id="defs7572" />
  <sodipodi:namedview
     id="base"
     pagecolor="#ffffff"
     bordercolor="#666666"
     borderopacity="1.0"
     inkscape:pageopacity="0.0"
     inkscape:pageshadow="2"
     inkscape:zoom="0.98994949"
     inkscape:cx="131.55432"
     inkscape:cy="406.08094"
     inkscape:document-units="px"
     inkscape:current-layer="layer1"
     showgrid="false"
     fit-margin-top="0"
     fit-margin-left="0"
     fit-margin-right="0"
     fit-margin-bottom="0"
     inkscape:window-width="1920"
     inkscape:window-height="1153"
     inkscape:window-x="1276"
     inkscape:window-y="-4"
     inkscape:window-maximized="1" />
  <metadata
     id="metadata7575">
    <rdf:RDF>
      <cc:Work
         rdf:about="">
        <dc:format>image/svg+xml</dc:format>
        <dc:type
           rdf:resource="http://purl.org/dc/dcmitype/StillImage" />
        <dc:title></dc:title>
      </cc:Work>
    </rdf:RDF>
  </metadata>
  <g
     inkscape:label="Vrstva 1"
     inkscape:groupmode="layer"
     id="layer1"
     transform="translate(-111.35715,-125.14792)">
    <path
       sodipodi:type="arc"
       style="fill:#2592ff;fill-opacity:1;stroke:#000000;stroke-width:3.18337226;stroke-linecap:round;stroke-linejoin:round;stroke-miterlimit:4;stroke-opacity:1;stroke-dasharray:none;stroke-dashoffset:0"
       id="path7578"
       sodipodi:cx="352.85715"
       sodipodi:cy="433.07648"
       sodipodi:rx="240"
       sodipodi:ry="306.42856"
       d="m 592.85715,433.07648 c 0,169.23582 -107.45166,306.42856 -240,306.42856 -132.54834,0 -240,-137.19274 -240,-306.42856 0,-169.23582 107.45166,-306.42856 240,-306.42856 132.54834,0 240,137.19274 240,306.42856 z"
       transform="matrix(1,0,0,0.88811188,0,14.170397)" />
    <path
       d="m 592.85715,433.07648 c 0,169.23582 -107.45166,306.42856 -240,306.42856 -132.54834,0 -240,-137.19274 -240,-306.42856 0,-169.23582 107.45166,-306.42856 240,-306.42856 132.54834,0 240,137.19274 240,306.42856 z"
       sodipodi:ry="306.42856"
       sodipodi:rx="240"
       sodipodi:cy="433.07648"
       sodipodi:cx="352.85715"
       id="path8090"
       style="fill:#7fbeff;fill-opacity:1;stroke:#000000;stroke-width:3.67791319;stroke-linecap:round;stroke-linejoin:round;stroke-miterlimit:4;stroke-opacity:1;stroke-dasharray:none;stroke-dashoffset:0"
       sodipodi:type="arc"
       transform="matrix(0.83928571,0,0,0.7927381,56.709184,75.47454)" />
    <path
       transform="matrix(0.71428571,0,0,0.71441449,100.81633,123.68037)"
       sodipodi:type="arc"
       style="fill:#009000;fill-opacity:1;stroke:#000000;stroke-width:4.19962168;stroke-linecap:round;stroke-linejoin:round;stroke-miterlimit:4;stroke-opacity:1;stroke-dasharray:none;stroke-dashoffset:0"
       id="path8092"
       sodipodi:cx="352.85715"
       sodipodi:cy="433.07648"
       sodipodi:rx="240"
       sodipodi:ry="306.42856"
       d="m 592.85715,433.07648 c 0,169.23582 -107.45166,306.42856 -240,306.42856 -132.54834,0 -240,-137.19274 -240,-306.42856 0,-169.23582 107.45166,-306.42856 240,-306.42856 132.54834,0 240,137.19274 240,306.42856 z" />
    <path
       d="m 592.85715,433.07648 c 0,169.23582 -107.45166,306.42856 -240,306.42856 -132.54834,0 -240,-137.19274 -240,-306.42856 0,-169.23582 107.45166,-306.42856 240,-306.42856 132.54834,0 240,137.19274 240,306.42856 z"
       sodipodi:ry="306.42856"
       sodipodi:rx="240"
       sodipodi:cy="433.07648"
       sodipodi:cx="352.85715"
       id="path8094"
       style="fill:#00c900;fill-opacity:1;stroke:#000000;stroke-width:4.98446512;stroke-linecap:round;stroke-linejoin:round;stroke-miterlimit:4;stroke-opacity:1;stroke-dasharray:none;stroke-dashoffset:0"
       sodipodi:type="arc"
       transform="matrix(0.60714285,0,0,0.59664289,138.62245,202.88161)"
       inkscape:transform-center-y="-116.92093" />
    <path
       inkscape:transform-center-y="-99.628349"
       transform="matrix(0.50595237,0,0,0.50839951,174.32823,258.34316)"
       sodipodi:type="arc"
       style="fill:#00ff00;fill-opacity:1;stroke:#000000;stroke-width:5.91512442;stroke-linecap:round;stroke-linejoin:round;stroke-miterlimit:4;stroke-opacity:1;stroke-dasharray:none;stroke-dashoffset:0"
       id="path8096"
       sodipodi:cx="352.85715"
       sodipodi:cy="433.07648"
       sodipodi:rx="240"
       sodipodi:ry="306.42856"
       d="m 592.85715,433.07648 c 0,169.23582 -107.45166,306.42856 -240,306.42856 -132.54834,0 -240,-137.19274 -240,-306.42856 0,-169.23582 107.45166,-306.42856 240,-306.42856 132.54834,0 240,137.19274 240,306.42856 z" />
    <path
       d="m 592.85715,433.07648 c 0,169.23582 -107.45166,306.42856 -240,306.42856 -132.54834,0 -240,-137.19274 -240,-306.42856 0,-169.23582 107.45166,-306.42856 240,-306.42856 132.54834,0 240,137.19274 240,306.42856 z"
       sodipodi:ry="306.42856"
       sodipodi:rx="240"
       sodipodi:cy="433.07648"
       sodipodi:cx="352.85715"
       id="path8098"
       style="fill:#7e8000;fill-opacity:1;stroke:#000000;stroke-width:8.33270931;stroke-linecap:round;stroke-linejoin:round;stroke-miterlimit:4;stroke-opacity:1;stroke-dasharray:none;stroke-dashoffset:0"
       sodipodi:type="arc"
       transform="matrix(0.41666666,0,0,0.31108656,205.83333,325.68566)"
       inkscape:transform-center-y="41.958442" />
    <path
       inkscape:transform-center-y="-39.171027"
       transform="matrix(0.29166666,0,0,0.23000024,249.94047,374.5265)"
       sodipodi:type="arc"
       style="fill:#bdc000;fill-opacity:1;stroke:#000000;stroke-width:11.58280468;stroke-linecap:round;stroke-linejoin:round;stroke-miterlimit:4;stroke-opacity:1;stroke-dasharray:none;stroke-dashoffset:0"
       id="path8100"
       sodipodi:cx="352.85715"
       sodipodi:cy="433.07648"
       sodipodi:rx="240"
       sodipodi:ry="306.42856"
       d="m 592.85715,433.07648 c 0,169.23582 -107.45166,306.42856 -240,306.42856 -132.54834,0 -240,-137.19274 -240,-306.42856 0,-169.23582 107.45166,-306.42856 240,-306.42856 132.54834,0 240,137.19274 240,306.42856 z" />
    <path
       d="m 592.85715,433.07648 c 0,169.23582 -107.45166,306.42856 -240,306.42856 -132.54834,0 -240,-137.19274 -240,-306.42856 0,-169.23582 107.45166,-306.42856 240,-306.42856 132.54834,0 240,137.19274 240,306.42856 z"
       sodipodi:ry="306.42856"
       sodipodi:rx="240"
       sodipodi:cy="433.07648"
       sodipodi:cx="352.85715"
       id="path8102"
       style="fill:#fbff01;fill-opacity:1;stroke:#000000;stroke-width:19.04371452;stroke-linecap:round;stroke-linejoin:round;stroke-miterlimit:4;stroke-opacity:1;stroke-dasharray:none;stroke-dashoffset:0"
       sodipodi:type="arc"
       transform="matrix(0.16598584,0,0,0.14950929,294.28785,421.86337)"
       inkscape:transform-center-y="-25.462723" />
    <path
       transform="matrix(0.16598584,0,0,0.18447433,294.28785,481.43512)"
       sodipodi:type="arc"
       style="fill:#fb0001;fill-opacity:0.76862745;stroke:#000000;stroke-width:17.14422035;stroke-linecap:round;stroke-linejoin:round;stroke-miterlimit:4;stroke-opacity:1;stroke-dasharray:none;stroke-dashoffset:0"
       id="path8104"
       sodipodi:cx="352.85715"
       sodipodi:cy="433.07648"
       sodipodi:rx="240"
       sodipodi:ry="306.42856"
       d="m 592.85715,433.07648 c 0,169.23582 -107.45166,306.42856 -240,306.42856 -132.54834,0 -240,-137.19274 -240,-306.42856 0,-169.23582 107.45166,-306.42856 240,-306.42856 132.54834,0 240,137.19274 240,306.42856 z" />
    <text
       xml:space="preserve"
       style="font-size:32px;font-style:normal;font-variant:normal;font-weight:normal;font-stretch:normal;text-align:center;text-anchor:middle;fill:#000000;fill-opacity:1;fill-rule:nonzero;stroke:none;font-family:Calibri;-inkscape-font-specification:Sans"
       x="352.8259"
       y="162.36218"
       id="text8106"><tspan
         sodipodi:role="line"
         id="tspan8108"
         x="352.8259"
         y="162.36218">BKJ</tspan></text>
    <text
       id="text8110"
       y="206.36218"
       x="352.8259"
       style="font-size:32px;font-style:normal;font-variant:normal;font-weight:normal;font-stretch:normal;text-align:center;text-anchor:middle;fill:#000000;fill-opacity:1;fill-rule:nonzero;stroke:none;font-family:Calibri;-inkscape-font-specification:Sans"
       xml:space="preserve"><tspan
         y="206.36218"
         x="352.8259"
         id="tspan8112"
         sodipodi:role="line">DBKJ</tspan></text>
    <text
       xml:space="preserve"
       style="font-size:32px;font-style:normal;font-variant:normal;font-weight:normal;font-stretch:normal;text-align:center;text-anchor:middle;fill:#000000;fill-opacity:1;fill-rule:nonzero;stroke:none;font-family:Calibri;-inkscape-font-specification:Sans"
       x="352.8259"
       y="244.36218"
       id="text8114"><tspan
         sodipodi:role="line"
         id="tspan8116"
         x="352.8259"
         y="244.36218">LR(k)</tspan></text>
    <text
       xml:space="preserve"
       style="font-size:32px;font-style:normal;font-variant:normal;font-weight:normal;font-stretch:normal;text-align:center;text-anchor:middle;fill:#000000;fill-opacity:1;fill-rule:nonzero;stroke:none;font-family:Calibri;-inkscape-font-specification:Sans"
       x="352.8259"
       y="312.36218"
       id="text8118"><tspan
         sodipodi:role="line"
         id="tspan8120"
         x="352.8259"
         y="312.36218">LR(2)</tspan></text>
    <text
       id="text8122"
       y="354.36218"
       x="352.8259"
       style="font-size:32px;font-style:normal;font-variant:normal;font-weight:normal;font-stretch:normal;text-align:center;text-anchor:middle;fill:#000000;fill-opacity:1;fill-rule:nonzero;stroke:none;font-family:Calibri;-inkscape-font-specification:Sans"
       xml:space="preserve"><tspan
         y="354.36218"
         x="352.8259"
         id="tspan8124"
         sodipodi:role="line">LR(1)</tspan></text>
    <text
       xml:space="preserve"
       style="font-size:32px;font-style:normal;font-variant:normal;font-weight:normal;font-stretch:normal;text-align:center;text-anchor:middle;fill:#000000;fill-opacity:1;fill-rule:nonzero;stroke:none;font-family:Calibri;-inkscape-font-specification:Sans"
       x="352.8259"
       y="398.36218"
       id="text8126"><tspan
         sodipodi:role="line"
         id="tspan8128"
         x="352.8259"
         y="398.36218">LALR(1)</tspan></text>
    <text
       id="text8130"
       y="436.36218"
       x="352.8259"
       style="font-size:32px;font-style:normal;font-variant:normal;font-weight:normal;font-stretch:normal;text-align:center;text-anchor:middle;fill:#000000;fill-opacity:1;fill-rule:nonzero;stroke:none;font-family:Calibri;-inkscape-font-specification:Sans"
       xml:space="preserve"><tspan
         y="436.36218"
         x="352.8259"
         id="tspan8132"
         sodipodi:role="line">SLR(1)</tspan></text>
    <text
       xml:space="preserve"
       style="font-size:32px;font-style:normal;font-variant:normal;font-weight:normal;font-stretch:normal;text-align:center;text-anchor:middle;fill:#000000;fill-opacity:1;fill-rule:nonzero;stroke:none;font-family:Calibri;-inkscape-font-specification:Sans"
       x="352.8259"
       y="484.36218"
       id="text8134"><tspan
         sodipodi:role="line"
         id="tspan8136"
         x="352.8259"
         y="484.36218">LR(0)</tspan></text>
    <text
       id="text8138"
       y="590.36218"
       x="352.8259"
       style="font-size:32px;font-style:normal;font-variant:normal;font-weight:normal;font-stretch:normal;text-align:center;text-anchor:middle;fill:#000000;fill-opacity:1;fill-rule:nonzero;stroke:none;font-family:Calibri;-inkscape-font-specification:Sans"
       xml:space="preserve"><tspan
         y="590.36218"
         x="352.8259"
         id="tspan8140"
         sodipodi:role="line">LL(1)</tspan></text>
    <path
       style="fill:#000000;stroke:#000000;stroke-width:3;stroke-miterlimit:4;stroke-opacity:1;stroke-dasharray:3.00000000999999990, 6.00000001999999990;stroke-dashoffset:0;fill-opacity:1"
       d="m 352.85715,251.08979 0,21.75257"
       id="path8142"
       inkscape:connector-curvature="0" />
  </g>
</svg>
